<svg width="9" height="9" viewBox="0 0 9 9" fill="none" xmlns="http://www.w3.org/2000/svg">
<path d="M3.08333 2.71716H1.83333C1.61232 2.71716 1.40036 2.80496 1.24408 2.96124C1.0878 3.11752 1 3.32948 1 3.5505V7.3005C1 7.52151 1.0878 7.73347 1.24408 7.88975C1.40036 8.04603 1.61232 8.13383 1.83333 8.13383H5.58333C5.80435 8.13383 6.01631 8.04603 6.17259 7.88975C6.32887 7.73347 6.41667 7.52151 6.41667 7.3005V6.0505" stroke="#066877" stroke-linecap="round" stroke-linejoin="round"/>
<path d="M3.0835 6.05055H4.3335L7.87516 2.50888C8.04092 2.34312 8.13405 2.1183 8.13405 1.88388C8.13405 1.64946 8.04092 1.42464 7.87516 1.25888C7.7094 1.09312 7.48458 1 7.25016 1C7.01574 1 6.79092 1.09312 6.62516 1.25888L3.0835 4.80055V6.05055Z" stroke="#066877" stroke-linecap="round" stroke-linejoin="round"/>
<path d="M6 1.88391L7.25 3.13391" stroke="#066877" stroke-linecap="round" stroke-linejoin="round"/>
</svg>
